# xmcd
#
# Track frame offsets:
#	182
#	12105
#	24312
#	35420
#	45660
#	56742
#	69982
#	81467
#	91245
#	102892
#	113232
#	127007
#	150082
#	163010
#	175020
#	187117
#	198222
#	211367
#	223117
#	235680
#	247500
#
# Disc length: 3491 seconds
#
# Revision: 5
# Processed by: cddbd v1.5.2PL0 Copyright (c) Steve Scherf et al.
# Submitted via: EZCDAudioConverter 6.0.2.1
#
DISCID=0c0da115
DTITLE=Clarence Carter - Snatching It Back
DYEAR=1992
DGENRE=Blues
TTITLE0=Step By Step
TTITLE1=I Stayed Away Too Long
TTITLE2=Tell Daddy
TTITLE3=Looking For A Fox
TTITLE4=I Can't See Myself
TTITLE5=The Road Of Love
TTITLE6=Slip Away
TTITLE7=Back Door Santa
TTITLE8=That Old Time Feeling
TTITLE9=Too Weak To Fight
TTITLE10=I'd Rather Go Blind
TTITLE11=Making Love (At The Dark End Of The Street)
TTITLE12=Snatching It Back
TTITLE13=Soul Deep
TTITLE14=I Smell A Rat
TTITLE15=Doin' Our Thing
TTITLE16=The Feeling Is Right
TTITLE17=I Can't Leave Your Love Alone
TTITLE18=Slipped, Tripped And Fell In Love
TTITLE19=It's All In Your Mind
TTITLE20=Patches
EXTD=
EXTT0=
EXTT1=
EXTT2=
EXTT3=
EXTT4=
EXTT5=
EXTT6=
EXTT7=
EXTT8=
EXTT9=
EXTT10=
EXTT11=
EXTT12=
EXTT13=
EXTT14=
EXTT15=
EXTT16=
EXTT17=
EXTT18=
EXTT19=
EXTT20=
PLAYORDER=
